<svg width="512" height="512" viewBox="0 0 512 512" xmlns="http://www.w3.org/2000/svg" role="img" aria-label="TON618 Capital"><rect width="512" height="512" rx="96" fill="#0B0B0C"/><g transform="translate(-169.412 -169.412) scale(1.66176)">
  <defs>
    <linearGradient id="disk" x1="0" y1="0" x2="1" y2="0">
      <stop offset="0%"  stop-color="#8A6D2B" stop-opacity="0"/>
      <stop offset="12%" stop-color="#8A6D2B"/>
      <stop offset="36%" stop-color="#C9A24B"/>
      <stop offset="50%" stop-color="#F2E2B0"/>
      <stop offset="64%" stop-color="#C9A24B"/>
      <stop offset="88%" stop-color="#8A6D2B"/>
      <stop offset="100%" stop-color="#8A6D2B" stop-opacity="0"/>
    </linearGradient>
    <linearGradient id="ringg" x1="0" y1="0" x2="0" y2="1">
      <stop offset="0%"  stop-color="#F2E2B0"/>
      <stop offset="45%" stop-color="#C9A24B"/>
      <stop offset="100%" stop-color="#8A6D2B"/>
    </linearGradient>
    <radialGradient id="coin" cx="42%" cy="36%" r="72%">
      <stop offset="0%"  stop-color="#F4E6B8"/>
      <stop offset="42%" stop-color="#D8B25C"/>
      <stop offset="80%" stop-color="#C9A24B"/>
      <stop offset="100%" stop-color="#9A7B30"/>
    </radialGradient>
    <filter id="glow" x="-40%" y="-40%" width="180%" height="180%">
      <feGaussianBlur stdDeviation="6" result="b"/>
      <feMerge><feMergeNode in="b"/><feMergeNode in="SourceGraphic"/></feMerge>
    </filter>
    <clipPath id="frontHalf"><rect x="-160" y="256" width="832" height="300"/></clipPath>
    <clipPath id="boxWin"><rect x="121" y="121" width="270" height="270"/></clipPath>
  </defs>
  <rect x="120" y="120" width="272" height="272" fill="#0B0B0C"/>
  <g clip-path="url(#boxWin)">
    <ellipse cx="256" cy="256" rx="307" ry="34" fill="url(#disk)" opacity="0.77" filter="url(#glow)" transform="rotate(-22 256 256)"/>
    <ellipse cx="256" cy="256" rx="307" ry="34" fill="none" stroke="#F2E2B0" stroke-width="1.5" opacity="0.5" transform="rotate(-22 256 256)"/>
    <ellipse cx="256" cy="256" rx="316" ry="42" fill="none" stroke="#F2E2B0" stroke-width="1" opacity="0.3" transform="rotate(-22 256 256)"/>
  </g>
  <circle cx="256" cy="256" r="100" fill="#0B0B0C"/>
  <circle cx="256" cy="256" r="91.56" fill="none" stroke="url(#ringg)" stroke-width="22.87" filter="url(#glow)"/>
  <g clip-path="url(#boxWin)">
    <path d="M 156 314 A 116 116 0 1 1 356 314" fill="none" stroke="url(#ringg)" stroke-width="6" stroke-linecap="round" opacity="0.85" filter="url(#glow)"/>
  </g>
  <circle cx="256" cy="256" r="56" fill="#0B0B0C"/>
  <circle cx="256" cy="256" r="52" fill="url(#coin)"/>
  <circle cx="256" cy="256" r="52" fill="none" stroke="#7A5F22" stroke-width="2.5"/>
  <circle cx="256" cy="256" r="45" fill="none" stroke="#F4E6B8" stroke-width="1.6" opacity="0.45"/>
  <g transform="translate(256 256) scale(0.55) translate(-256 -256)">
    <g fill="#141417">
      <rect x="240" y="190" width="11" height="20" rx="3"/>
      <rect x="261" y="190" width="11" height="20" rx="3"/>
      <rect x="240" y="302" width="11" height="20" rx="3"/>
      <rect x="261" y="302" width="11" height="20" rx="3"/>
      <rect x="226" y="206" width="17" height="100" rx="3"/>
    </g>
    <g fill="none" stroke="#141417" stroke-width="16" stroke-linecap="butt">
      <path d="M 243 214 H 276 A 21 21 0 0 1 276 256 H 243"/>
      <path d="M 243 256 H 282 A 23 23 0 0 1 282 300 H 243"/>
    </g>
  </g>
  <rect x="120" y="120" width="272" height="272" fill="none" stroke="url(#ringg)" stroke-width="6"/>
</g></svg>
